<svg aria-hidden="true" style="position: absolute; width: 0; height: 0; overflow: hidden;" version="1.1" xmlns="http://www.w3.org/2000/svg" xmlns:xlink="http://www.w3.org/1999/xlink">
<defs>
<symbol id="icon-down-arrow" viewBox="0 0 32 32">
<path d="M31.609 7.724c-0.521-0.521-1.364-0.521-1.885 0l-13.724 13.724-13.724-13.724c-0.521-0.521-1.364-0.521-1.885 0s-0.521 1.364 0 1.885l14.666 14.666c0.26 0.26 0.601 0.391 0.943 0.391s0.683-0.131 0.943-0.391l14.666-14.666c0.521-0.521 0.521-1.364-0-1.885z"></path>
</symbol>
<symbol id="icon-menu-close" viewBox="0 0 32 32">
<path d="M31.439 3.166l-3.166-3.166-12.554 12.552-12.552-12.552-3.166 3.166 12.552 12.552-12.552 12.554 3.166 3.166 12.552-12.554 12.554 12.554 3.166-3.166-12.554-12.554 12.554-12.552z"></path>
</symbol>
<symbol id="icon-ctrl" viewBox="0 0 32 32">
<path d="M23 14c-0.278 0-0.555-0.116-0.753-0.341l-6.247-7.14-6.247 7.14c-0.364 0.416-0.995 0.458-1.411 0.094s-0.458-0.995-0.094-1.411l7-8c0.19-0.217 0.464-0.341 0.753-0.341s0.563 0.125 0.753 0.341l7 8c0.364 0.416 0.322 1.047-0.094 1.411-0.19 0.166-0.424 0.247-0.658 0.247z"></path>
</symbol>
<symbol id="icon-new-tab" viewBox="0 0 32 32">
<path d="M6 2v24h24v-24h-24zM28 24h-20v-20h20v20zM4 28v-21l-2-2v25h25l-2-2h-21z"></path>
<path d="M11 8l5 5-6 6 3 3 6-6 5 5v-13z"></path>
</symbol>
<symbol id="icon-embed2" viewBox="0 0 40 32">
<path d="M26 23l3 3 10-10-10-10-3 3 7 7z"></path>
<path d="M14 9l-3-3-10 10 10 10 3-3-7-7z"></path>
<path d="M21.916 4.704l2.171 0.592-6 22.001-2.171-0.592 6-22.001z"></path>
</symbol>
<symbol id="icon-arrow-right" viewBox="0 0 32 32">
<path d="M31 16l-15-15v9h-16v12h16v9z"></path>
</symbol>
<symbol id="icon-arrow-left" viewBox="0 0 32 32">
<path d="M1 16l15 15v-9h16v-12h-16v-9z"></path>
</symbol>
<symbol id="icon-arrow-right2" viewBox="0 0 32 32">
<path d="M19.414 27.414l10-10c0.781-0.781 0.781-2.047 0-2.828l-10-10c-0.781-0.781-2.047-0.781-2.828 0s-0.781 2.047 0 2.828l6.586 6.586h-19.172c-1.105 0-2 0.895-2 2s0.895 2 2 2h19.172l-6.586 6.586c-0.39 0.39-0.586 0.902-0.586 1.414s0.195 1.024 0.586 1.414c0.781 0.781 2.047 0.781 2.828 0z"></path>
</symbol>
<symbol id="icon-arrow-left2" viewBox="0 0 32 32">
<path d="M12.586 27.414l-10-10c-0.781-0.781-0.781-2.047 0-2.828l10-10c0.781-0.781 2.047-0.781 2.828 0s0.781 2.047 0 2.828l-6.586 6.586h19.172c1.105 0 2 0.895 2 2s-0.895 2-2 2h-19.172l6.586 6.586c0.39 0.39 0.586 0.902 0.586 1.414s-0.195 1.024-0.586 1.414c-0.781 0.781-2.047 0.781-2.828 0z"></path>
</symbol>
<symbol id="icon-keyboard_arrow_left" viewBox="0 0 32 32">
<path d="M20.547 22.12l-6.107-6.12 6.107-6.12-1.88-1.88-8 8 8 8 1.88-1.88z"></path>
</symbol>
<symbol id="icon-keyboard_arrow_right" viewBox="0 0 32 32">
<path d="M11.453 22.12l6.107-6.12-6.107-6.12 1.88-1.88 8 8-8 8-1.88-1.88z"></path>
</symbol>
<symbol id="icon-keyboard_double_arrow_right" viewBox="0 0 32 32">
<path d="M8.547 8l-1.88 1.88 6.107 6.12-6.107 6.12 1.88 1.88 8-8z"></path>
<path d="M17.333 8l-1.88 1.88 6.107 6.12-6.107 6.12 1.88 1.88 8-8z"></path>
</symbol>
<symbol id="icon-keyboard_double_arrow_left" viewBox="0 0 32 32">
<path d="M23.453 24l1.88-1.88-6.107-6.12 6.107-6.12-1.88-1.88-8 8z"></path>
<path d="M14.667 24l1.88-1.88-6.107-6.12 6.107-6.12-1.88-1.88-8 8z"></path>
</symbol>
<symbol id="icon-keyboard_arrow_down_black" viewBox="0 0 32 32">
<path d="M9.88 11.453l6.12 6.107 6.12-6.107 1.88 1.88-8 8-8-8 1.88-1.88z"></path>
</symbol>
<symbol id="icon-keyboard_arrow_up_black" viewBox="0 0 32 32">
<path d="M9.88 20.547l6.12-6.107 6.12 6.107 1.88-1.88-8-8-8 8z"></path>
</symbol>
<symbol id="icon-first_page_black" viewBox="0 0 32 32">
<path d="M24.547 22.12l-6.12-6.12 6.12-6.12-1.88-1.88-8 8 8 8zM8 8h2.667v16h-2.667z"></path>
</symbol>
<symbol id="icon-last_page_black" viewBox="0 0 32 32">
<path d="M7.453 9.88l6.12 6.12-6.12 6.12 1.88 1.88 8-8-8-8zM21.333 8h2.667v16h-2.667z"></path>
</symbol>
</defs>
</svg>